<?xml version="1.0" encoding="UTF-8" standalone="no"?>
<!DOCTYPE svg PUBLIC "-//W3C//DTD SVG 1.1//EN" "http://www.w3.org/Graphics/SVG/1.1/DTD/svg11.dtd">
<svg width="100%" height="100%" viewBox="0 0 289 200" version="1.1" xmlns="http://www.w3.org/2000/svg" xmlns:xlink="http://www.w3.org/1999/xlink" xml:space="preserve" xmlns:serif="http://www.serif.com/" style="fill-rule:evenodd;clip-rule:evenodd;stroke-linejoin:round;stroke-miterlimit:2;">
    <g transform="matrix(0.422453,0,0,0.422453,-83.6245,-291.346)">
        <g id="UK">
            <g id="red">
                <g transform="matrix(1,0,0,5.02278,0,-3726.72)">
                    <rect x="498.087" y="884.49" width="83.827" height="83.827" style="fill:rgb(99,75,69);"/>
                </g>
                <g transform="matrix(6.12323e-17,1,-7.53417,4.61335e-16,7519.68,386.403)">
                    <rect x="498.087" y="884.49" width="83.827" height="83.827" style="fill:rgb(99,75,69);"/>
                </g>
                <path d="M224.218,1115.34L419.839,998.283L469.371,998.283L469.371,1003.37L246.173,1136.92L224.218,1136.92L224.218,1115.34Z" style="fill:rgb(99,75,69);"/>
                <path d="M224.218,732.087L428.838,854.523L370.8,854.523L224.218,766.814L224.218,732.087Z" style="fill:rgb(99,75,69);"/>
                <path d="M727.147,998.283L855.782,1075.25L855.782,1109.98L669.109,998.283L727.147,998.283Z" style="fill:rgb(99,75,69);"/>
                <path d="M610.629,849.385L833.745,715.882L855.782,715.882L855.782,737.423L660.08,854.523L610.629,854.523L610.629,849.385Z" style="fill:rgb(99,75,69);"/>
            </g>
            <g id="blue">
                <path d="M269.757,1136.92L469.371,1017.48L469.371,1136.92L269.757,1136.92ZM338.202,998.283L224.218,1066.49L224.218,998.283L338.202,998.283Z" style="fill:rgb(99,75,69);"/>
                <path d="M741.716,854.523L855.782,786.271L855.782,854.523L741.716,854.523ZM810.161,715.882L610.629,835.273L610.629,715.882L810.161,715.882Z" style="fill:rgb(99,75,69);"/>
                <path d="M855.782,1061.14L750.731,998.283L855.782,998.283L855.782,1061.14ZM610.629,1012.14L819.176,1136.92L610.629,1136.92L610.629,1012.14Z" style="fill:rgb(99,75,69);"/>
                <path d="M469.371,829.928L278.772,715.882L469.371,715.882L469.371,829.928ZM224.218,780.926L347.217,854.523L224.218,854.523L224.218,780.926Z" style="fill:rgb(99,75,69);"/>
            </g>
            <g transform="matrix(0.939585,0,0,1.1532,39.521,501.627)">
                <path d="M896.703,168.467L896.703,568.225C896.703,571.219 893.725,573.645 890.051,573.645L175.268,573.645C171.594,573.645 168.616,571.219 168.616,568.225L168.616,168.467C168.616,165.474 171.594,163.047 175.268,163.047L890.051,163.047C893.725,163.047 896.703,165.474 896.703,168.467ZM883.4,173.887C883.4,173.887 181.92,173.887 181.92,173.887L181.92,562.806C181.92,562.806 883.4,562.806 883.4,562.806L883.4,173.887Z" style="fill:rgb(99,75,69);"/>
            </g>
        </g>
    </g>
</svg>
